<svg width="37" height="38" viewBox="0 0 37 38" fill="none" xmlns="http://www.w3.org/2000/svg">
<path fill-rule="evenodd" clip-rule="evenodd" d="M19.5087 15.5727V14.1725C19.5087 13.5008 19.9532 13.3399 20.2754 13.3399H22.2338V10.3501H19.5372C16.538 10.3501 15.8663 12.5638 15.8663 14.0022V15.5727H14.125V17.6826V19.0642H15.8849V27.7877H19.3763V19.0642H21.9594L22.0731 17.6922L22.2809 15.5727H19.5087Z" fill="#FFFFFF"/>
<path fill-rule="evenodd" clip-rule="evenodd" d="M18.5 36.6001C28.165 36.6001 36 28.7651 36 19.1001C36 9.43511 28.165 1.6001 18.5 1.6001C8.83502 1.6001 1 9.43511 1 19.1001C1 28.7651 8.83502 36.6001 18.5 36.6001Z" stroke="#FFFFFF" stroke-width="2"/>
</svg>
