<svg width="37" height="38" viewBox="0 0 37 38" fill="none" xmlns="http://www.w3.org/2000/svg">
<path fill-rule="evenodd" clip-rule="evenodd" d="M24.2711 19.274C24.2711 16.1877 21.7698 13.6768 18.6739 13.6768C15.5875 13.6768 13.0766 16.1877 13.0766 19.274C13.0766 22.3699 15.5875 24.8713 18.6739 24.8713C21.7698 24.8713 24.2711 22.3699 24.2711 19.274ZM24.166 12.9194C23.6676 12.9194 23.2651 13.3219 23.2651 13.8201C23.2651 14.3188 23.6676 14.7213 24.166 14.7213C24.6642 14.7213 25.067 14.3188 25.067 13.8201C25.067 13.3219 24.6642 12.9194 24.166 12.9194ZM14.1023 11.626H23.2555C24.9521 11.626 26.3318 13.0057 26.3318 14.7026V23.8555C26.3318 25.5519 24.9521 26.9319 23.2555 26.9319H14.1023C12.4055 26.9319 11.0257 25.5519 11.0257 23.8555V14.7026C11.0257 13.0057 12.4055 11.626 14.1023 11.626ZM23.2555 10.6001H14.1023C11.85 10.6001 10 12.4401 10 14.7024V23.8553C10 26.1074 11.85 27.9574 14.1023 27.9574H23.2555C25.5173 27.9574 27.3575 26.1074 27.3575 23.8553V14.7024C27.3575 12.4401 25.5173 10.6001 23.2555 10.6001ZM14.2459 19.2742C14.2459 16.8301 16.2298 14.8364 18.6739 14.8364C21.1277 14.8364 23.1114 16.8301 23.1114 19.2742C23.1114 21.7276 21.1277 23.7117 18.6739 23.7117C16.2298 23.7117 14.2459 21.7276 14.2459 19.2742Z" fill="#FFFFFF"/>
<path d="M24.5211 19.274C24.5211 16.0499 21.9081 13.4268 18.6739 13.4268V13.9268C21.6314 13.9268 24.0211 16.3255 24.0211 19.274H24.5211ZM18.6739 13.4268C15.4494 13.4268 12.8266 16.0496 12.8266 19.274H13.3266C13.3266 16.3257 15.7256 13.9268 18.6739 13.9268V13.4268ZM12.8266 19.274C12.8266 22.5083 15.4497 25.1213 18.6739 25.1213V24.6213C15.7253 24.6213 13.3266 22.2316 13.3266 19.274H12.8266ZM18.6739 25.1213C21.9079 25.1213 24.5211 22.508 24.5211 19.274H24.0211C24.0211 22.2319 21.6317 24.6213 18.6739 24.6213V25.1213ZM24.166 12.6694C23.5296 12.6694 23.0151 13.1838 23.0151 13.8201H23.5151C23.5151 13.46 23.8057 13.1694 24.166 13.1694V12.6694ZM23.0151 13.8201C23.0151 14.4568 23.5295 14.9713 24.166 14.9713V14.4713C23.8057 14.4713 23.5151 14.1807 23.5151 13.8201H23.0151ZM24.166 14.9713C24.8023 14.9713 25.317 14.4568 25.317 13.8201H24.817C24.817 14.1807 24.5262 14.4713 24.166 14.4713V14.9713ZM25.317 13.8201C25.317 13.1838 24.8022 12.6694 24.166 12.6694V13.1694C24.5262 13.1694 24.817 13.4601 24.817 13.8201H25.317ZM14.1023 11.876H23.2555V11.376H14.1023V11.876ZM23.2555 11.876C24.814 11.876 26.0818 13.1438 26.0818 14.7026H26.5818C26.5818 12.8677 25.0901 11.376 23.2555 11.376V11.876ZM26.0818 14.7026V23.8555H26.5818V14.7026H26.0818ZM26.0818 23.8555C26.0818 25.4138 24.814 26.6819 23.2555 26.6819V27.1819C25.0901 27.1819 26.5818 25.6899 26.5818 23.8555H26.0818ZM23.2555 26.6819H14.1023V27.1819H23.2555V26.6819ZM14.1023 26.6819C12.5435 26.6819 11.2757 25.4138 11.2757 23.8555H10.7757C10.7757 25.69 12.2674 27.1819 14.1023 27.1819V26.6819ZM11.2757 23.8555V14.7026H10.7757V23.8555H11.2757ZM11.2757 14.7026C11.2757 13.1438 12.5435 11.876 14.1023 11.876V11.376C12.2674 11.376 10.7757 12.8677 10.7757 14.7026H11.2757ZM23.2555 10.3501H14.1023V10.8501H23.2555V10.3501ZM14.1023 10.3501C11.7123 10.3501 9.75 12.3016 9.75 14.7024H10.25C10.25 12.5786 11.9877 10.8501 14.1023 10.8501V10.3501ZM9.75 14.7024V23.8553H10.25V14.7024H9.75ZM9.75 23.8553C9.75 26.2455 11.7119 28.2074 14.1023 28.2074V27.7074C11.9881 27.7074 10.25 25.9693 10.25 23.8553H9.75ZM14.1023 28.2074H23.2555V27.7074H14.1023V28.2074ZM23.2555 28.2074C25.6557 28.2074 27.6075 26.2451 27.6075 23.8553H27.1075C27.1075 25.9697 25.3788 27.7074 23.2555 27.7074V28.2074ZM27.6075 23.8553V14.7024H27.1075V23.8553H27.6075ZM27.6075 14.7024C27.6075 12.302 25.6553 10.3501 23.2555 10.3501V10.8501C25.3792 10.8501 27.1075 12.5782 27.1075 14.7024H27.6075ZM14.4959 19.2742C14.4959 16.9674 16.3686 15.0864 18.6739 15.0864V14.5864C16.091 14.5864 13.9959 16.6927 13.9959 19.2742H14.4959ZM18.6739 15.0864C20.9893 15.0864 22.8614 16.9678 22.8614 19.2742H23.3614C23.3614 16.6924 21.2662 14.5864 18.6739 14.5864V15.0864ZM22.8614 19.2742C22.8614 21.5895 20.9896 23.4617 18.6739 23.4617V23.9617C21.2658 23.9617 23.3614 21.8656 23.3614 19.2742H22.8614ZM18.6739 23.4617C16.3682 23.4617 14.4959 21.5899 14.4959 19.2742H13.9959C13.9959 21.8653 16.0913 23.9617 18.6739 23.9617V23.4617Z" fill="#FFFFFF"/>
<path fill-rule="evenodd" clip-rule="evenodd" d="M18.5 36.6001C28.165 36.6001 36 28.7651 36 19.1001C36 9.43511 28.165 1.6001 18.5 1.6001C8.83502 1.6001 1 9.43511 1 19.1001C1 28.7651 8.83502 36.6001 18.5 36.6001Z" stroke="#FFFFFF" stroke-width="2"/>
</svg>
