<svg width="37" height="38" viewBox="0 0 37 38" fill="none" xmlns="http://www.w3.org/2000/svg">
<path fill-rule="evenodd" clip-rule="evenodd" d="M18.5 36.6001C28.165 36.6001 36 28.7651 36 19.1001C36 9.43511 28.165 1.6001 18.5 1.6001C8.83502 1.6001 1 9.43511 1 19.1001C1 28.7651 8.83502 36.6001 18.5 36.6001Z" stroke="#FFFFFF" stroke-width="2"/>
<path fill-rule="evenodd" clip-rule="evenodd" d="M11.7823 9.4751C10.6592 9.4751 9.75 10.3841 9.75 11.5074C9.75 12.6307 10.6592 13.5397 11.7823 13.5397C12.9056 13.5397 13.8143 12.6307 13.8143 11.5074C13.8143 10.3841 12.9056 9.4751 11.7823 9.4751ZM27.0882 18.8555C26.8203 16.652 25.8152 15.2832 22.8415 15.2832C21.0978 15.2832 19.9218 15.9251 19.4298 16.8557H19.376V15.2832H16.1349V17.5184V26.9093H19.5259V21.1447C19.5259 19.6255 19.8254 18.1606 21.687 18.1606C23.5582 18.1606 23.697 19.8931 23.697 21.2512V26.9093H27.1843V20.5241C27.1843 19.925 27.1518 19.3691 27.0882 18.8555ZM9.75 18.3741V26.9093H13.8143V17.6789V15.2832H9.75V18.3741Z" fill="#FFFFFF"/>
</svg>
