<svg width="37" height="37" viewBox="0 0 37 37" fill="none" xmlns="http://www.w3.org/2000/svg">
<path fill-rule="evenodd" clip-rule="evenodd" d="M18.5 36C28.165 36 36 28.165 36 18.5C36 8.83502 28.165 1 18.5 1C8.83502 1 1 8.83502 1 18.5C1 28.165 8.83502 36 18.5 36Z" stroke="#FFFFFF" stroke-width="2"/>
<path d="M18.5 13.1818C18.5418 13.1818 22.6673 13.1818 25.3909 13.3782L25.5109 13.3891C25.8745 13.4218 26.2673 13.46 26.6527 13.8582C26.8345 14.04 27.0418 14.6836 27.1127 15.1436C27.2277 16.1524 27.2884 17.1666 27.2945 18.1818V19.68C27.2881 20.6958 27.2274 21.7106 27.1127 22.72C27.0455 23.1691 26.8327 23.8218 26.6545 23.9927C26.2709 24.3891 25.8691 24.4273 25.5145 24.4618L25.3909 24.4745C22.7145 24.6564 18.6836 24.6745 18.5018 24.6745C18.2927 24.6745 13.4109 24.6255 11.8527 24.4927C11.76 24.4782 11.6709 24.4655 11.5655 24.4545C11.1509 24.4055 10.68 24.3491 10.3418 23.9982C10.16 23.8164 9.95273 23.1745 9.88364 22.7164C9.7687 21.7076 9.70801 20.6934 9.70182 19.6782V18.1945C9.70828 17.1793 9.76897 16.1651 9.88364 15.1564C9.95455 14.6927 10.1655 14.0491 10.3436 13.8709C10.7291 13.4727 11.1309 13.4364 11.4855 13.4018L11.6055 13.3909C14.3327 13.1964 18.4545 13.1945 18.4945 13.1945H18.5V13.1818ZM18.5 12.0127C18.5 12.0127 14.3018 12.0127 11.5036 12.2127C11.1127 12.2582 10.2618 12.2618 9.50364 13.0473C8.90545 13.6473 8.70909 15.0091 8.70909 15.0091C8.58195 16.0664 8.51215 17.1297 8.5 18.1945V19.6927C8.50865 20.7616 8.57542 21.8293 8.7 22.8909C8.7 22.8909 8.89455 24.2527 9.49455 24.8509C10.2564 25.6364 11.2545 25.6127 11.7 25.6964C13.3 25.8473 18.5 25.8945 18.5 25.8945C18.5 25.8945 22.7018 25.8945 25.5018 25.6891C25.8927 25.6436 26.7455 25.6382 27.5018 24.8527C28.1 24.2545 28.2964 22.8927 28.2964 22.8927C28.4221 21.8311 28.4901 20.7635 28.5 19.6945V18.1964C28.4913 17.1275 28.4246 16.0598 28.3 14.9982C28.3 14.9982 28.1055 13.6364 27.5055 13.0364C26.7455 12.2509 25.8927 12.2455 25.5055 12.2018C22.7018 12 18.5 12 18.5 12V12.0127Z" fill="white"/>
<path d="M16.7053 15.9668V21.9268L21.7944 18.9468L16.7053 15.9668Z" fill="white"/>
</svg>
