<svg width="187" height="187" viewBox="0 0 187 187" fill="none" xmlns="http://www.w3.org/2000/svg">
<path fill-rule="evenodd" clip-rule="evenodd" d="M117.771 45.5381C125.609 45.5381 132.979 48.6295 138.521 54.2425C144.065 59.8574 147.117 67.3207 147.117 75.2612C147.117 83.1997 144.065 90.665 138.521 96.2797L94.1823 141.171L49.8594 96.2797C44.3155 90.6647 41.2632 83.1994 41.2632 75.2612C41.2632 67.3207 44.3155 59.8574 49.8594 54.2425C55.4012 48.6295 62.7723 45.5381 70.6101 45.5381C78.4478 45.5381 85.8189 48.6295 91.3608 54.2425C92.9242 55.8259 95.4568 55.8259 97.0199 54.2425C102.562 48.6295 109.933 45.5381 117.771 45.5381Z" fill="#BD9258" stroke="#001A34" stroke-width="4"/>
<path fill-rule="evenodd" clip-rule="evenodd" d="M127.2 90.5466C127.981 91.3382 129.007 91.7339 130.031 91.7339C131.055 91.7339 132.079 91.3382 132.861 90.5483C136.892 86.4654 139.114 81.0365 139.114 75.2612C139.114 69.4859 136.892 64.057 132.861 59.9741C131.298 58.3947 128.763 58.3927 127.2 59.9761C125.638 61.5596 125.638 64.1264 127.202 65.7098C129.723 68.259 131.11 71.6512 131.11 75.2612C131.11 78.8712 129.723 82.2634 127.202 84.8126C125.638 86.3963 125.638 88.9634 127.2 90.5466" fill="#01213A"/>
</svg>
