<svg width="187" height="187" viewBox="0 0 187 187" fill="none" xmlns="http://www.w3.org/2000/svg">
<path d="M59.0428 79.8945L47.7236 82.8733L41.1704 87.0435V103.129L42.9577 120.405H144.235C144.036 111.469 143.758 93.4776 144.235 93.001C144.235 85.3754 136.689 81.086 132.916 79.8945H59.0428Z" stroke="black"/>
<path d="M60.8296 129.341H47.7231V141.852L50.1061 146.617L55.4679 148.405L60.8296 140.064V129.341Z" fill="#BD9258"/>
<path d="M140.66 129.341H127.554V141.852L129.937 146.617L135.299 148.405L140.66 140.064V129.341Z" fill="#BD9258"/>
<path fill-rule="evenodd" clip-rule="evenodd" d="M78.2733 103.933H106.059V97.6704H78.2733V103.933ZM107.452 95.0176H76.8806C76.1119 95.0176 75.488 95.612 75.488 96.3441V105.259C75.488 105.991 76.1119 106.585 76.8806 106.585H107.452C108.221 106.585 108.844 105.991 108.844 105.259V96.3441C108.844 95.612 108.221 95.0176 107.452 95.0176Z" fill="#001A34" stroke="#001A34"/>
<path fill-rule="evenodd" clip-rule="evenodd" d="M59.4517 107.584C56.425 107.584 53.9626 105.117 53.9626 102.085C53.9626 99.053 56.425 96.586 59.4517 96.586C62.4784 96.586 64.9409 99.053 64.9409 102.085C64.9409 105.117 62.4784 107.584 59.4517 107.584ZM59.4517 93.7305C54.8532 93.7305 51.1125 97.4781 51.1125 102.085C51.1125 106.692 54.8532 110.44 59.4517 110.44C64.0502 110.44 67.7907 106.692 67.7907 102.085C67.7907 97.4781 64.0502 93.7305 59.4517 93.7305Z" fill="#001A34" stroke="#001A34"/>
<path fill-rule="evenodd" clip-rule="evenodd" d="M127.448 107.584C124.422 107.584 121.958 105.117 121.958 102.085C121.958 99.053 124.422 96.586 127.448 96.586C130.474 96.586 132.937 99.053 132.937 102.085C132.937 105.117 130.474 107.584 127.448 107.584ZM127.448 93.7305C122.849 93.7305 119.108 97.4781 119.108 102.085C119.108 106.692 122.849 110.44 127.448 110.44C132.046 110.44 135.786 106.692 135.786 102.085C135.786 97.4781 132.046 93.7305 127.448 93.7305Z" fill="#001A34" stroke="#001A34"/>
<path fill-rule="evenodd" clip-rule="evenodd" d="M39.7904 127.787H145.826V122.617H39.7904V127.787ZM43.2506 92.5068C43.2506 86.4014 48.2092 81.4337 54.302 81.4337H131.314C137.408 81.4337 142.365 86.4014 142.365 92.5068V119.821H43.2492V92.5068H43.2506ZM84.7972 78.6394H65.6688C65.9953 73.6326 70.1545 69.6557 75.233 69.6557C80.3115 69.6557 84.4708 73.631 84.7972 78.6394ZM60.3782 47.3233C61.1484 43.0642 64.4843 39.9737 68.31 39.9737H117.308C121.134 39.9737 124.469 43.0642 125.24 47.3275L131.001 78.6381H87.5876C87.2571 72.0879 81.8506 66.8589 75.233 66.8589C68.6154 66.8589 63.2091 72.0894 62.8784 78.6381H54.616L60.3782 47.3233ZM137.173 141.368C137.173 144.035 135.008 146.204 132.346 146.204C129.684 146.204 127.519 144.035 127.519 141.368V130.583H137.173V141.368ZM58.0998 141.368C58.0998 144.035 55.9344 146.204 53.2724 146.204C50.6103 146.204 48.4449 144.035 48.4449 141.368V130.583H58.0998V141.368ZM38.3952 130.583H45.6531V141.368C45.6531 145.577 49.07 149 53.271 149C57.4719 149 60.8888 145.575 60.8888 141.368V130.583H124.727V141.368C124.727 145.577 128.145 149 132.345 149C136.544 149 139.963 145.575 139.963 141.368V130.583H147.22C147.991 130.583 148.616 129.957 148.616 129.185V121.219C148.616 120.447 147.991 119.821 147.22 119.821H145.156V92.5068C145.156 85.7401 140.29 80.0987 133.882 78.8869L127.983 46.8243C126.972 41.2346 122.482 37.1768 117.307 37.1768H68.3085C63.1337 37.1768 58.6425 41.2346 57.6324 46.8201L51.7334 78.8869C45.3252 80.0987 40.4601 85.7401 40.4601 92.5068V119.821H38.3952C37.625 119.821 37 120.447 37 121.219V129.185C37 129.957 37.625 130.583 38.3952 130.583Z" fill="#001A34" stroke="#001A34"/>
<g style="mix-blend-mode:multiply">
<path d="M59.6129 44.9271C60.4058 40.3333 63.8401 37 67.7788 37H118.223C122.161 37 125.594 40.3333 126.388 44.9316L132.319 78.7023H53.6807L59.6129 44.9271Z" fill="#BD9258"/>
</g>
</svg>
