<svg width="187" height="187" viewBox="0 0 187 187" fill="none" xmlns="http://www.w3.org/2000/svg">
<g clip-path="url(#clip0)">
<path d="M70.1469 62.1846C73.4233 62.6508 76.531 63.0947 79.6387 63.5431C82.2137 63.9116 84.3713 65.017 86.2271 66.8815C94.2094 74.908 102.156 82.9744 110.29 90.8455C115.497 95.8887 113.442 103.271 107.177 104.985C107.164 105.265 107.142 105.562 107.142 105.855C107.142 116.767 107.129 127.679 107.146 138.596C107.155 145.286 111.186 150.453 117.562 152.029C125.326 153.952 133.486 147.998 133.753 140.012C133.961 133.695 133.828 127.364 133.846 121.038C133.846 120.563 133.846 120.088 133.846 119.555C135.244 119.555 136.527 119.555 137.904 119.555C137.935 119.813 137.992 120.092 137.992 120.372C137.997 126.552 138.055 132.727 137.979 138.907C137.877 147.31 132.629 154.089 124.505 155.998C114.33 158.391 105.162 151.705 103.346 142.183C103.106 140.922 103.075 139.612 103.075 138.321C103.053 127.591 103.062 116.865 103.062 106.135C103.062 105.691 103.062 105.251 103.062 104.87C98.9509 102.956 96.4381 99.196 92.8109 96.4613C92.8109 116.536 92.8109 136.443 92.8109 156.42C71.4877 156.42 50.3109 156.42 28.9966 156.42C28.9966 155.954 28.9966 155.523 28.9966 155.097C28.9966 129.832 28.9966 104.563 28.9966 79.2986C28.9966 76.1777 30.031 74.8858 32.8412 74.2421C33.5249 72.5151 33.9733 70.8148 34.8213 69.3454C36.3263 66.7528 38.7237 65.2789 41.6716 64.7018C45.3697 63.9737 49.0634 63.2146 52.7705 62.5176C53.5119 62.38 53.7916 62.0781 53.7117 61.3545C53.6717 60.9904 53.6673 60.6131 53.7117 60.2446C53.8271 59.2591 53.4808 58.5532 52.7705 57.8118C50.9591 55.9117 49.8004 53.5633 49.7027 50.9618C49.5562 47.0507 49.4497 43.0996 49.8626 39.224C50.4841 33.4572 55.9892 29.0044 61.9071 29C67.7851 28.9956 73.3523 33.4883 74.0005 39.184C74.5066 43.6501 74.7375 48.2093 73.7696 52.6443C73.3923 54.3713 72.3356 56.0449 71.2524 57.4966C70.4888 58.5132 69.9871 59.4056 70.1381 60.6619C70.1958 61.128 70.1469 61.6075 70.1469 62.1846ZM33.2319 78.353C33.2319 103.103 33.2319 127.706 33.2319 152.314C51.7183 152.314 70.1159 152.314 88.5845 152.314C88.6022 151.936 88.6333 151.612 88.6333 151.288C88.6377 131.986 88.6422 112.679 88.6067 93.3759C88.6067 92.8743 88.2915 92.2483 87.9185 91.8976C83.4079 87.6269 78.8441 83.4095 74.329 79.1432C73.7119 78.5616 73.1037 78.3441 72.2735 78.3441C59.7362 78.3663 47.1988 78.3574 34.6615 78.3574C34.222 78.353 33.7824 78.353 33.2319 78.353ZM90.6533 77.2165C88.1139 74.6505 85.4856 72.0002 82.8619 69.3498C81.823 68.2977 80.5133 67.8404 79.0971 67.6318C75.8429 67.1523 72.5887 66.664 69.3301 66.2378C68.8772 66.1801 68.309 66.3177 67.9227 66.5619C66.1114 67.7073 64.3311 68.9015 62.5686 70.1223C62.1069 70.4419 61.7784 70.4686 61.3078 70.1356C60.1624 69.3232 58.8971 68.6662 57.8227 67.7694C56.22 66.4331 54.604 66.1135 52.5352 66.6462C49.0013 67.5563 45.3653 68.0757 41.8047 68.9015C39.2076 69.5008 37.2453 72.0534 37.5161 74.2421C37.9468 74.2421 38.3907 74.2421 38.8302 74.2421C50.5596 74.2421 62.2845 74.251 74.0138 74.2243C74.773 74.2243 75.319 74.4285 75.874 74.9524C78.8219 77.7492 81.8097 80.5061 84.7531 83.2496C86.7287 81.2297 88.6644 79.2497 90.6533 77.2165ZM70.0404 45.5057C70.0448 45.5057 70.0493 45.5057 70.0537 45.5057C70.0537 43.8809 70.1469 42.2472 70.0359 40.6313C69.7518 36.4094 66.1203 33.1242 61.876 33.1553C57.6496 33.1864 54.0579 36.4227 53.8315 40.6091C53.6717 43.5924 53.7339 46.5934 53.7427 49.5856C53.7472 51.6543 54.4531 53.4656 55.8293 55.046C57.8316 57.3457 61.2944 58.3623 64.1979 57.43C67.5143 56.369 69.8229 53.6831 70.0226 50.4868C70.1292 48.8309 70.0404 47.1661 70.0404 45.5057ZM87.883 86.3084C88.1671 86.5215 88.4824 86.7213 88.7532 86.9699C91.4435 89.4559 94.125 91.9509 96.8065 94.4414C98.7866 96.2793 100.736 98.1483 102.751 99.9463C104.483 101.491 106.929 101.283 108.376 99.5645C109.65 98.0506 109.477 95.9508 107.905 94.3704C103.417 89.8644 98.9109 85.3672 94.4092 80.8746C94.2094 80.6748 93.9741 80.515 93.8809 80.4395C91.8831 82.3928 89.9563 84.2751 87.883 86.3084ZM57.6851 61.3633C57.8671 61.9627 57.8582 62.7618 58.2489 63.0769C59.4032 64.0137 60.7129 64.7639 61.9382 65.5763C63.0214 64.8572 63.9937 64.1158 65.0592 63.5431C66.0537 63.0059 66.2224 62.2912 65.9649 61.3855C64.5886 61.5675 63.2789 61.8783 61.9693 61.8827C60.6551 61.8827 59.3455 61.5809 57.6851 61.3633Z" fill="black"/>
<path d="M129.725 94.783C129.725 92.2126 129.623 89.8109 129.761 87.418C129.849 85.9264 129.339 84.9897 128.207 84.0574C124.726 81.194 121.33 78.224 117.929 75.2629C116.215 73.7713 115.399 71.7957 115.394 69.5627C115.359 58.7616 115.328 47.965 115.394 37.1639C115.425 32.4226 118.901 29.1108 123.865 29.0575C131.892 28.9776 139.918 28.9909 147.941 29.0531C152.225 29.0841 154.982 31.2195 156.18 35.2816C156.425 36.1117 156.438 37.0351 156.438 37.9141C156.456 48.1958 156.411 58.4775 156.469 68.7592C156.487 71.8091 155.337 74.1753 153.042 76.102C149.645 78.9565 146.298 81.8688 142.902 84.7189C142.333 85.1983 142.107 85.6822 142.12 86.4147C142.156 88.8165 142.111 91.2226 142.147 93.6243C142.16 94.4545 141.947 94.8097 141.028 94.8052C137.992 94.7919 137.965 94.823 137.96 97.8729C137.96 98.7163 137.667 98.9428 136.868 98.9561C133.938 99.0005 133.898 99.0227 133.925 96.106C133.934 95.0716 133.583 94.7076 132.58 94.7741C131.683 94.8319 130.764 94.783 129.725 94.783ZM119.461 53.1324C119.461 58.3088 119.483 63.4852 119.443 68.6615C119.434 69.7358 119.687 70.1221 120.855 70.1176C130.875 70.0688 140.895 70.091 150.915 70.091C152.407 70.091 152.411 70.091 152.416 68.5372C152.416 58.4065 152.42 48.2757 152.416 38.1494C152.411 34.7399 150.786 33.1018 147.395 33.0974C139.741 33.0885 132.087 33.0885 124.433 33.0974C121.072 33.1018 119.474 34.7044 119.465 38.0562C119.456 43.0727 119.461 48.1026 119.461 53.1324ZM123.612 74.3351C123.572 74.4328 123.536 74.5304 123.496 74.6281C125.157 76.0753 126.808 77.5359 128.482 78.9698C129.854 80.1463 131.088 81.74 132.686 82.3216C134.324 82.9165 136.331 82.5702 138.174 82.4992C138.808 82.477 139.545 82.1973 140.034 81.7933C142.622 79.6491 145.148 77.4338 147.688 75.2318C147.936 75.0143 148.132 74.7391 148.491 74.3306C140.02 74.3351 131.816 74.3351 123.612 74.3351ZM137.943 88.701C137.943 88.4435 137.907 88.1772 137.947 87.9241C138.125 86.8098 137.605 86.4458 136.571 86.5879C136.389 86.6101 136.202 86.5923 136.016 86.5923C133.459 86.6012 133.929 86.4502 133.925 88.741C133.916 90.8541 133.516 90.7298 135.945 90.7343C138.373 90.7387 137.903 90.8097 137.943 88.701Z" fill="black"/>
<path d="M137.933 103.144C137.933 104.48 137.933 105.727 137.933 107.05C136.619 107.05 135.345 107.05 133.978 107.05C133.978 105.789 133.978 104.515 133.978 103.144C135.238 103.144 136.539 103.144 137.933 103.144Z" fill="black"/>
<path d="M137.884 115.302C136.544 115.302 135.296 115.302 133.969 115.302C133.969 113.984 133.969 112.709 133.969 111.355C135.243 111.355 136.517 111.355 137.884 111.355C137.884 112.647 137.884 113.975 137.884 115.302Z" fill="black"/>
<path d="M33.2314 78.3532C33.7775 78.3532 34.2215 78.3532 34.661 78.3532C47.1983 78.3532 59.7357 78.362 72.273 78.3398C73.1032 78.3398 73.7159 78.5574 74.3285 79.1389C78.8436 83.4052 83.4075 87.6227 87.9181 91.8934C88.291 92.2441 88.6062 92.8745 88.6062 93.3717C88.6417 112.674 88.6373 131.981 88.6328 151.284C88.6328 151.608 88.6018 151.932 88.584 152.309C70.1154 152.309 51.7134 152.309 33.2314 152.309C33.2314 127.706 33.2314 103.103 33.2314 78.3532Z" fill="#BD9258"/>
<path d="M57.6841 61.3633C59.3489 61.5764 60.6586 61.8783 61.9638 61.8783C63.2735 61.8738 64.5787 61.5675 65.9594 61.381C66.2169 62.2867 66.0482 63.0014 65.0538 63.5386C63.9927 64.1157 63.0204 64.8571 61.9327 65.5718C60.703 64.7639 59.3978 64.0136 58.2435 63.0725C57.8572 62.7617 57.8617 61.967 57.6841 61.3633Z" fill="white"/>
<path d="M119.461 53.1317C119.461 48.1018 119.456 43.0764 119.461 38.0465C119.465 34.6948 121.064 33.0922 124.429 33.0877C132.083 33.0788 139.736 33.0788 147.39 33.0877C150.782 33.0922 152.411 34.7303 152.411 38.1398C152.42 48.2705 152.416 58.4013 152.411 68.5276C152.411 70.0814 152.407 70.0814 150.911 70.0814C140.891 70.0814 130.871 70.0592 120.85 70.108C119.683 70.1124 119.43 69.7218 119.439 68.6519C119.488 63.4799 119.461 58.3036 119.461 53.1317ZM142.081 45.4248C142.081 43.2984 142.081 41.3539 142.081 39.3517C137.93 39.3517 133.881 39.3517 129.712 39.3517C129.712 41.3983 129.712 43.3783 129.712 45.4737C127.616 45.4737 125.641 45.4737 123.647 45.4737C123.647 49.6423 123.647 53.691 123.647 57.8419C125.698 57.8419 127.683 57.8419 129.765 57.8419C129.765 59.924 129.765 61.904 129.765 63.9239C133.916 63.9239 137.961 63.9239 142.125 63.9239C142.125 61.8729 142.125 59.8973 142.125 57.8019C144.225 57.8019 146.2 57.8019 148.172 57.8019C148.172 53.6289 148.172 49.5801 148.172 45.4293C146.152 45.4248 144.207 45.4248 142.081 45.4248Z" fill="#BD9258"/>
<path d="M137.943 88.7024C137.903 90.8111 138.373 90.7357 135.949 90.7357C133.521 90.7312 133.925 90.8555 133.929 88.7424C133.938 86.4516 133.467 86.6026 136.02 86.5937C136.207 86.5937 136.393 86.6159 136.575 86.5892C137.605 86.4516 138.129 86.8156 137.951 87.9255C137.911 88.1785 137.943 88.4449 137.943 88.7024Z" fill="white"/>
<path d="M142.08 45.4252C144.207 45.4252 146.151 45.4252 148.176 45.4252C148.176 49.5805 148.176 53.6293 148.176 57.7979C146.204 57.7979 144.224 57.7979 142.129 57.7979C142.129 59.8933 142.129 61.8732 142.129 63.9198C137.965 63.9198 133.92 63.9198 129.769 63.9198C129.769 61.8999 129.769 59.9199 129.769 57.8378C127.682 57.8378 125.702 57.8378 123.651 57.8378C123.651 53.687 123.651 49.6382 123.651 45.4696C125.645 45.4696 127.62 45.4696 129.716 45.4696C129.716 43.3742 129.716 41.3987 129.716 39.3477C133.885 39.3477 137.933 39.3477 142.084 39.3477C142.08 41.3498 142.08 43.2943 142.08 45.4252ZM137.933 49.6071C137.933 47.4585 137.933 45.4519 137.933 43.463C136.526 43.463 135.248 43.463 133.871 43.463C133.871 45.5184 133.871 47.5029 133.871 49.6338C131.771 49.6338 129.765 49.6338 127.802 49.6338C127.802 51.0633 127.802 52.3463 127.802 53.7536C129.858 53.7536 131.838 53.7536 133.916 53.7536C133.916 55.8312 133.916 57.7757 133.916 59.7512C135.319 59.7512 136.619 59.7512 138.004 59.7512C138.004 57.7135 138.004 55.769 138.004 53.7003C140.069 53.7003 142.053 53.7003 144.078 53.7003C144.078 52.2708 144.078 50.97 144.078 49.6071C142.045 49.6071 140.091 49.6071 137.933 49.6071Z" fill="black"/>
<path d="M53.3872 40.6396H71.6775" stroke="#001A34" stroke-width="3"/>
</g>
<defs>
<clipPath id="clip0">
<rect width="127.478" height="127.478" fill="white" transform="translate(29 29)"/>
</clipPath>
</defs>
</svg>
