<svg width="187" height="187" viewBox="0 0 187 187" fill="none" xmlns="http://www.w3.org/2000/svg">
<circle cx="88.6288" cy="55.359" r="16.1344" fill="#BD9258"/>
<path fill-rule="evenodd" clip-rule="evenodd" d="M58.9586 134.63C58.438 136.699 57.9285 138.651 57.4638 140.611C57.2873 141.355 57.647 141.945 58.3687 142.13C61.45 142.912 64.5402 143.658 67.6349 144.377C68.4728 144.57 69.056 144.19 69.2705 143.333C69.4291 142.702 69.5453 142.055 69.7665 141.448C70.0436 140.688 69.8581 140.34 69.0761 139.982C66.5914 138.847 64.1492 137.615 61.7203 136.363C60.7886 135.882 59.9395 135.251 58.9586 134.63ZM111.001 140.485C111.235 141.43 111.456 142.34 111.682 143.249C111.919 144.194 112.542 144.587 113.485 144.364C116.508 143.647 119.529 142.914 122.544 142.159C123.274 141.975 123.699 141.43 123.531 140.688C123.078 138.686 122.55 136.701 122.054 134.71C120.186 135.792 118.457 136.878 116.651 137.821C114.846 138.763 112.965 139.567 111.001 140.485ZM74.2398 56.0797C74.2264 64.4889 81.1218 71.3108 89.673 71.3439C98.2487 71.377 105.269 64.5198 105.276 56.104C105.283 47.7169 98.3894 40.9171 89.807 40.8487C81.2246 40.7802 74.2555 47.5977 74.2398 56.0797ZM80.0068 72.7149C78.7444 71.7325 77.6138 70.8185 76.4385 69.9663C76.2016 69.7941 75.7547 69.7389 75.4643 69.825C64.2229 73.1432 55.0573 79.2166 49.2836 89.5664C46.1621 95.1652 44.9264 101.236 45.78 107.603C47.0044 116.759 51.7168 123.996 58.867 129.716C66.6718 135.957 75.748 139.154 85.6845 140.037C93.4111 140.726 100.993 139.916 108.288 137.266C120.454 132.849 129.716 125.373 134.073 112.862C134.538 111.527 135.083 111.173 136.529 111.158C137.957 111.142 139.387 111.169 140.817 111.149C142.868 111.123 144.05 110.014 144.074 108.007C144.11 104.93 144.108 101.85 144.077 98.7726C144.054 96.7393 142.919 95.6399 140.85 95.5957C139.313 95.5648 137.771 95.5604 136.234 95.5957C134.936 95.6266 134.093 95.1277 133.642 93.8825C132.098 89.6437 129.754 85.8685 126.688 82.5392C125.819 81.5943 125.701 80.6583 126.134 79.4617C127.408 75.958 128.583 72.4191 129.792 68.8933C129.893 68.6019 129.953 68.295 130.096 67.763C128.82 67.763 127.687 67.6658 126.577 67.7807C122.964 68.1538 119.99 69.8404 117.438 72.3241C115.983 73.7437 115.632 73.7216 113.769 72.9842C110.683 71.7612 107.546 70.6728 104.422 69.5512C104.148 69.4519 103.705 69.3967 103.513 69.5424C102.221 70.5182 100.977 71.5536 99.6832 72.5957C101.464 72.9313 103.193 73.2359 104.912 73.5869C106.436 73.9004 107.198 74.7857 106.974 75.9051C106.731 77.1237 105.68 77.6425 104.123 77.3379C102.579 77.0376 101.039 76.7197 99.4843 76.4769C92.0951 75.3288 84.7438 75.4812 77.4395 77.1635C76.5882 77.3599 75.7279 77.5719 74.8587 77.6425C73.8935 77.7198 73.2343 77.1524 73.0109 76.2583C72.7763 75.3134 73.1427 74.5385 74.0678 74.1124C74.4275 73.9468 74.823 73.843 75.214 73.7569C76.7714 73.4081 78.3355 73.077 80.0068 72.7149ZM67.0249 148.272C64.1246 147.541 61.202 146.883 58.333 146.044C57.1443 145.698 55.9064 145.15 54.9836 144.36C53.5066 143.093 53.2966 141.3 53.7502 139.459C54.2686 137.348 54.7758 135.237 55.359 133.147C55.5802 132.356 55.4036 131.884 54.8249 131.272C52.5525 128.873 50.0902 126.579 48.2267 123.89C40.614 112.92 39.5728 101.276 45.1432 89.1138C45.2795 88.818 45.4202 88.5244 45.6012 88.1402C44.8929 87.8908 44.2025 87.6921 43.55 87.4139C40.719 86.2041 38.8198 84.1928 38.1226 81.1727C38.0578 80.8923 38.0176 80.6009 38.0042 80.3139C37.9416 78.9517 38.5807 78.0841 39.7269 77.9538C40.7905 77.8324 41.7491 78.5367 41.8206 79.8282C41.9547 82.25 44.3276 84.1376 46.9352 84.3562C47.3754 84.3915 48.0345 84.131 48.2825 83.791C54.3669 75.426 62.5828 70.0281 72.3562 66.7673C72.5975 66.6856 72.8411 66.6084 73.0824 66.52C73.1472 66.4958 73.1986 66.4384 73.355 66.328C70.2938 61.2016 69.4313 55.7618 71.3619 50.024C72.7249 45.9684 75.2565 42.7606 78.8003 40.3387C85.7314 35.5965 95.049 35.9189 101.864 41.224C105.66 44.1801 108.004 48.0679 108.831 52.8035C109.649 57.4816 108.733 61.8573 106.362 65.9063C109.148 67.0013 111.85 68.0897 114.58 69.0987C114.868 69.2046 115.407 68.9529 115.693 68.7101C118.528 66.2926 121.723 64.628 125.455 64.0695C127.846 63.7118 130.203 63.8686 132.5 64.6545C134.48 65.3301 134.855 66.0829 134.189 68.0169C132.884 71.8164 131.595 75.6203 130.25 79.4065C130.002 80.1085 130.078 80.5854 130.565 81.1462C133.106 84.0824 135.139 87.3366 136.6 90.9242C136.884 91.6196 137.273 91.8227 137.995 91.783C139.092 91.7256 140.193 91.7366 141.293 91.7852C145.031 91.9508 147.864 94.7303 147.944 98.4172C148.018 101.711 148.018 105.009 147.947 108.303C147.866 112.151 144.937 114.878 140.879 114.993C139.746 115.024 138.613 114.997 137.76 114.997C136.238 117.814 134.92 120.519 133.358 123.08C131.497 126.133 129.088 128.784 126.349 131.107C125.616 131.729 125.39 132.273 125.665 133.226C126.3 135.452 126.876 137.701 127.307 139.971C127.846 142.817 126.279 145.144 123.435 145.872C120.425 146.645 117.395 147.345 114.377 148.08C114.202 148.122 114.039 148.206 113.869 148.272H111.89C108.659 147.274 107.772 144.603 107.325 141.638C96.0165 144.874 84.9002 144.857 73.6209 141.635C73.2299 144.698 72.2914 147.327 69.0023 148.272H67.0249Z" fill="#001A34" stroke="#001A34"/>
<path d="M109.917 130.644L109.916 130.645C108.968 130.89 108.205 130.46 107.966 129.776C107.727 129.091 108.055 128.326 108.964 128.069L108.965 128.069C111.856 127.247 114.488 125.98 116.805 124.095C117.321 123.676 117.908 123.641 118.363 123.993L118.363 123.993C118.549 124.137 118.712 124.338 118.894 124.606C118.951 124.689 119.014 124.785 119.081 124.887C119.147 124.99 119.218 125.098 119.292 125.207C119.213 125.324 119.139 125.436 119.071 125.54C119.014 125.628 118.96 125.71 118.91 125.783C118.744 126.029 118.606 126.206 118.449 126.342C116.002 128.452 113.116 129.823 109.917 130.644Z" fill="#001A34" stroke="#001A34"/>
<path d="M118.136 90.8665L118.136 90.8662C118.116 89.6569 119.181 88.5391 120.403 88.4945C121.656 88.4503 122.807 89.5488 122.823 90.8023C122.836 92.0182 121.768 93.1359 120.558 93.1783L120.557 93.1783C119.311 93.2245 118.155 92.125 118.136 90.8665Z" fill="#001A34" stroke="#001A34"/>
<path fill-rule="evenodd" clip-rule="evenodd" d="M87.7101 48.5429C86.6251 49.0507 86.1152 49.7818 86.3724 50.7497C86.5078 51.2621 87.074 51.6607 87.4462 52.1116C87.5342 52.0364 87.6222 51.9636 87.7101 51.8884V48.5429ZM91.7549 57.5045V61.2167C92.7317 61.1097 93.158 60.5244 93.2167 59.6567C93.2866 58.6341 92.9212 57.8575 91.7549 57.5045ZM87.762 61.2737C87.762 59.7319 87.8071 58.2766 87.7259 56.8304C87.7079 56.5366 87.2657 56.1449 86.9341 56.0151C85.3212 55.3888 83.7827 54.6874 82.9661 53.0089C81.3847 49.7613 83.045 45.8965 86.51 44.8033C87.2319 44.5756 87.7643 44.3592 88.0891 43.5143C88.2831 43.011 89.1764 42.4758 89.7314 42.5008C90.3359 42.5305 91.1977 43.0611 91.4345 43.6031C91.7639 44.3547 92.1835 44.6257 92.8851 44.8489C95.4342 45.6665 97.02 47.707 97.099 50.1576C97.1419 51.4101 96.5012 52.2573 95.4139 52.3963C94.3717 52.5284 93.5122 51.8315 93.2708 50.6017C93.0994 49.7226 92.8196 48.9665 91.7143 48.7114C91.7143 50.1257 91.6646 51.4602 91.7571 52.7857C91.7752 53.059 92.2895 53.3892 92.6392 53.5327C94.4416 54.2615 95.9936 55.2294 96.7245 57.1925C98.0126 60.6474 96.3072 64.1683 92.7903 65.1362C92.1294 65.3161 91.7007 65.5006 91.5203 66.2567C91.3172 67.0993 90.6224 67.5116 89.763 67.5207C88.9012 67.5298 88.1906 67.1221 87.9786 66.2909C87.8004 65.5803 87.4078 65.3844 86.7988 65.2022C84.1639 64.4143 82.4608 62.3008 82.3818 59.807C82.3412 58.5271 82.9616 57.6822 84.0331 57.5546C85.1655 57.4157 85.919 58.0078 86.2055 59.2764C86.3927 60.1213 86.5461 60.9799 87.762 61.2737Z" fill="#001A34"/>
</svg>
