<svg width="187" height="187" viewBox="0 0 187 187" fill="none" xmlns="http://www.w3.org/2000/svg">
<path d="M133.514 68.8351C138.222 77.8755 142.816 82.1042 131.982 89.1534C121.377 91.9723 118.965 89.1535 113.606 79.2853C110.543 73.6459 107.594 65.1876 116.669 60.9589C125.743 56.7303 130.565 63.172 133.514 68.8351Z" fill="#BD9258"/>
<circle cx="116.96" cy="48.1214" r="11.473" fill="#BD9258"/>
<path fill-rule="evenodd" clip-rule="evenodd" d="M81.4856 64.7191C81.7607 64.9898 81.9344 65.3431 81.9786 65.7219L86.0343 102.368C86.0716 102.712 85.9993 103.059 85.8272 103.361C85.6551 103.663 85.3917 103.906 85.0728 104.057L78.1152 107.4L81.9655 130.345C82.0249 130.703 81.9642 131.07 81.7925 131.391C81.6208 131.712 81.3473 131.971 81.0128 132.128L72.5779 136.179L77.8661 154.331C77.9275 154.546 77.9447 154.77 77.9165 154.992C77.8884 155.213 77.8155 155.427 77.702 155.62C77.5886 155.814 77.4369 155.983 77.2558 156.119C77.0746 156.255 76.8676 156.355 76.6467 156.412C76.2011 156.536 75.7233 156.482 75.3185 156.262C74.9137 156.042 74.6149 155.674 74.4878 155.239L68.8062 135.748C68.6981 135.369 68.7294 134.966 68.8947 134.607C69.06 134.249 69.3488 133.959 69.7109 133.786L78.29 129.663L74.444 106.713C74.3853 106.357 74.4459 105.991 74.6167 105.671C74.7875 105.351 75.0595 105.093 75.3924 104.935L82.4156 101.558L78.6309 67.402L30.5216 61.317C30.2951 61.2896 30.0763 61.2189 29.8778 61.1088C29.6793 60.9988 29.5051 60.8516 29.365 60.6757C29.2249 60.4998 29.1218 60.2987 29.0615 60.0838C29.0013 59.869 28.9851 59.6447 29.0138 59.4237C29.0778 58.9768 29.3207 58.5729 29.6893 58.3003C30.0579 58.0278 30.5222 57.9089 30.9805 57.9696L80.4621 64.2294C80.8499 64.2758 81.2105 64.4483 81.4856 64.7191Z" fill="#001A34" stroke="#001A34" stroke-width="0.5"/>
<path fill-rule="evenodd" clip-rule="evenodd" d="M133.911 85.7079C134.826 84.7527 135.538 83.6297 136.005 82.404V82.3997C136.949 79.9222 136.836 77.2358 135.677 74.8394L131.552 66.2982C129.812 62.695 126.089 60.5715 122.208 60.5715C120.719 60.5724 119.248 60.8866 117.894 61.4925C116.672 62.0302 115.571 62.7993 114.656 63.7553C113.741 64.7113 113.029 65.8351 112.562 67.0615C112.094 68.2787 111.882 69.5754 111.939 70.8742C111.995 72.1731 112.319 73.4476 112.89 74.6219L117.016 83.163C119.402 88.1094 125.529 90.2628 130.673 87.9687C131.895 87.4316 132.996 86.6631 133.911 85.7079ZM105.72 45.9347C105.472 47.2444 105.497 48.5895 105.793 49.8897H105.797C106.09 51.1958 106.647 52.4319 107.434 53.5257C108.222 54.6195 109.226 55.5492 110.386 56.2604C115.268 59.2837 121.797 57.9234 124.944 53.2329C125.696 52.1212 126.211 50.8734 126.459 49.5636C126.706 48.2538 126.682 46.9088 126.386 45.6085C125.792 42.9647 124.157 40.7005 121.797 39.2379C120.036 38.1462 118.06 37.626 116.107 37.626C114.349 37.6193 112.618 38.0399 111.069 38.8499C109.52 39.6599 108.202 40.8338 107.235 42.2654C106.483 43.3771 105.968 44.6249 105.72 45.9347ZM154.919 82.2391C155.225 82.5361 155.408 82.9338 155.432 83.3549H155.427L156.476 104.936C156.486 105.159 156.45 105.381 156.371 105.591C156.292 105.8 156.172 105.992 156.017 106.156C155.862 106.32 155.675 106.453 155.467 106.546C155.26 106.64 155.035 106.692 154.807 106.701C154.578 106.713 154.349 106.681 154.133 106.607C153.917 106.533 153.718 106.418 153.548 106.268C153.377 106.119 153.238 105.939 153.14 105.737C153.041 105.535 152.983 105.317 152.971 105.094L152.001 85.035L138.955 84.3826C137.722 87.0622 135.609 89.2647 132.95 90.6424L142.233 103.294C142.412 103.537 142.521 103.822 142.548 104.12C142.575 104.418 142.519 104.717 142.386 104.987L133.335 123.306C133.13 123.711 132.771 124.023 132.334 124.173C131.896 124.322 131.417 124.299 130.997 124.108C130.789 124.015 130.603 123.882 130.448 123.718C130.294 123.554 130.174 123.362 130.097 123.152C130.02 122.942 129.986 122.72 129.998 122.497C130.01 122.275 130.067 122.057 130.166 121.856L138.776 104.428L129.576 91.8918C126.933 92.5128 124.16 92.36 121.605 91.4525C119.909 90.8647 118.349 89.955 117.015 88.7759C115.682 87.5969 114.601 86.1718 113.834 84.583L109.713 76.0419C109.363 75.3255 109.092 74.5878 108.883 73.8416L97.3535 80.5917L98.7433 98.6803C98.7745 99.1293 98.6217 99.5719 98.3185 99.911C98.0152 100.25 97.5864 100.458 97.1263 100.488C96.6658 100.524 96.2097 100.38 95.8576 100.088C95.5055 99.7966 95.286 99.3809 95.247 98.9319L93.7742 79.8114C93.7513 79.5002 93.8178 79.189 93.966 78.9126C94.1142 78.6363 94.3383 78.4056 94.6133 78.2464L108.428 70.1573C108.472 68.4059 108.874 66.6806 109.609 65.0823C110.345 63.4841 111.399 62.0448 112.711 60.8486C111.247 60.5032 109.818 59.9233 108.481 59.0961C106.933 58.1481 105.595 56.9086 104.545 55.4501C103.494 53.9916 102.752 52.3434 102.362 50.6019C101.968 48.8682 101.935 47.0748 102.265 45.3284C102.595 43.582 103.282 41.9182 104.285 40.4361C108.481 34.1806 117.186 32.3683 123.698 36.4022C125.246 37.3502 126.584 38.5897 127.634 40.0482C128.685 41.5067 129.427 43.1549 129.817 44.8964C130.612 48.4186 129.926 52.0304 127.894 55.0579C127.263 56.0008 126.515 56.8632 125.665 57.6249C127.577 58.0985 129.364 58.9617 130.909 60.1579L138.92 45.4209L137.168 30.8801C137.143 30.6589 137.163 30.4351 137.227 30.2214C137.291 30.0078 137.397 29.8085 137.54 29.635C137.683 29.4616 137.859 29.3173 138.06 29.2104C138.26 29.1036 138.479 29.0363 138.706 29.0124C139.165 28.9581 139.627 29.0833 139.992 29.3606C140.356 29.6379 140.593 30.0447 140.651 30.4921L142.469 45.5488C142.51 45.8854 142.444 46.2261 142.281 46.5253L133.453 62.7633C133.948 63.4278 134.378 64.1359 134.738 64.8783L138.864 73.4237C140.02 75.7988 140.41 78.4604 139.982 81.0565L153.771 81.7473C154.203 81.7668 154.612 81.942 154.919 82.2391Z" fill="#001A34" stroke="#001A34" stroke-width="0.5"/>
</svg>
