<svg width="187" height="187" viewBox="0 0 187 187" fill="none" xmlns="http://www.w3.org/2000/svg">
<path fill-rule="evenodd" clip-rule="evenodd" d="M141.208 121.808L91.4949 150.877L41.7814 121.808V63.6697L91.4949 34.6016L141.208 63.6697V121.808ZM145.058 59.918L92.778 29.3485C91.9835 28.8838 91.0062 28.8838 90.2115 29.3485L37.9318 59.918C37.137 60.3825 36.6484 61.2406 36.6484 62.1696V123.309C36.6484 124.238 37.137 125.096 37.9318 125.56L90.2115 156.13C90.609 156.362 91.0513 156.478 91.4949 156.478C91.9385 156.478 92.381 156.362 92.7781 156.13L145.058 125.56C145.853 125.096 146.341 124.238 146.341 123.309V62.1698C146.341 61.2406 145.852 60.3827 145.058 59.918V59.918Z" fill="#01213A"/>
<path fill-rule="evenodd" clip-rule="evenodd" d="M106.617 66.0802C111.644 66.0802 116.371 68.0627 119.925 71.6623C123.48 75.2632 125.438 80.0494 125.438 85.1417C125.438 90.2327 123.48 95.0202 119.925 98.6209L91.4903 127.41L63.0658 98.6209C59.5105 95.02 57.553 90.2325 57.553 85.1417C57.553 80.0494 59.5105 75.2632 63.0658 71.6623C66.6198 68.0627 71.3469 66.0802 76.3733 66.0802C81.3997 66.0802 86.1268 68.0627 89.6808 71.6623C90.6834 72.6778 92.3076 72.6778 93.31 71.6623C96.864 68.0627 101.591 66.0802 106.617 66.0802M76.3735 60.8818C69.9748 60.8818 63.9609 63.4052 59.4368 67.9871C54.9116 72.569 52.4204 78.6613 52.4204 85.1422C52.4204 91.6229 54.9116 97.7153 59.4368 102.297L89.6759 132.924C90.1773 133.432 90.8338 133.686 91.4905 133.686C92.1474 133.686 92.8039 133.432 93.3051 132.924L123.554 102.297C128.079 97.7153 130.571 91.6229 130.571 85.1422C130.571 78.6615 128.079 72.5691 123.554 67.9871C119.03 63.4052 113.016 60.8818 106.618 60.8818C101.041 60.8818 95.7563 62.7984 91.4954 66.3243C87.2348 62.7984 81.9501 60.8818 76.3735 60.8818" fill="#001A34"/>
<path fill-rule="evenodd" clip-rule="evenodd" d="M106.618 66.0801C111.644 66.0801 116.371 68.0626 119.925 71.6622C123.48 75.2631 125.438 80.0493 125.438 85.1416C125.438 90.2326 123.48 95.0201 119.925 98.6208L91.4905 127.41L63.066 98.6208C59.5107 95.02 57.5532 90.2324 57.5532 85.1416C57.5532 80.0493 59.5107 75.2631 63.066 71.6622C66.62 68.0626 71.3471 66.0801 76.3735 66.0801C81.3999 66.0801 86.127 68.0626 89.681 71.6622C90.6836 72.6777 92.3078 72.6777 93.3102 71.6622C96.8642 68.0626 101.591 66.0801 106.618 66.0801" fill="#BD9258"/>
<path fill-rule="evenodd" clip-rule="evenodd" d="M112.664 94.9443C113.165 95.452 113.823 95.7058 114.48 95.7058C115.137 95.7058 115.793 95.452 116.295 94.9454C118.88 92.327 120.305 88.8455 120.305 85.1418C120.305 81.4381 118.88 77.9565 116.295 75.3381C115.292 74.3252 113.666 74.3239 112.664 75.3394C111.663 76.3549 111.663 78.001 112.665 79.0164C114.282 80.6512 115.171 82.8267 115.171 85.1418C115.171 87.4569 114.282 89.6323 112.665 91.2671C111.663 92.2828 111.663 93.9291 112.664 94.9443" fill="#001A34"/>
</svg>
