<svg width="187" height="187" viewBox="0 0 187 187" fill="none" xmlns="http://www.w3.org/2000/svg">
<path fill-rule="evenodd" clip-rule="evenodd" d="M86.9777 55.7846C87.0574 55.6893 87.3307 55.5085 87.7773 55.5085H90.4636C90.9618 55.5085 91.243 55.7346 91.2726 55.7636C91.2805 55.8379 91.2929 55.9122 91.3117 55.9849L98.8989 86.7495C99.0801 87.4844 99.7548 88.0222 100.462 87.964L111.584 87.5861C117.263 87.1726 126.165 87.4036 128.178 89.2108C128.229 89.256 128.289 89.3029 128.345 89.3416C128.378 89.3642 131.583 91.5784 131.75 94.3724C131.583 97.2278 128.376 99.442 128.348 99.4614C128.287 99.5001 128.231 99.547 128.176 99.5938C126.166 101.396 117.262 101.626 111.581 101.219C111.454 101.206 111.332 101.217 111.212 101.241L100.456 100.876C99.7516 100.847 99.0738 101.356 98.8926 102.091L91.3117 132.816C91.2929 132.889 91.2914 132.917 91.2836 132.993C91.243 133.07 90.9618 133.295 90.4636 133.295H87.7773C87.3291 133.295 87.0574 133.114 86.9777 133.018L89.0643 102.196C89.1236 101.311 88.4848 100.543 87.6305 100.472L65.6389 98.6587C64.908 98.5876 64.2426 99.0657 64.024 99.7844L61.433 108.308C61.3705 108.485 61.2065 108.606 61.0238 108.606H58.4843C58.2453 108.606 58.0501 108.405 58.0501 108.158V80.6447C58.0501 80.3976 58.2453 80.1974 58.4843 80.1974H60.9957C61.1831 80.1974 61.3486 80.3201 61.3892 80.4477L63.8506 89.0348C64.0599 89.7664 64.7315 90.2541 65.4718 90.1863L87.6305 88.3662C88.4848 88.2951 89.1252 87.5263 89.0643 86.6429L86.9777 55.7846ZM64.3688 79.4763C63.8815 77.976 62.5259 76.9682 60.9969 76.9682H58.4855C56.5239 76.9682 54.9277 78.6171 54.9277 80.6456V108.158C54.9277 110.186 56.5239 111.835 58.4855 111.835H61.025C62.5259 111.835 63.8721 110.853 64.3953 109.333L66.6318 101.98L85.8419 103.563L83.8475 133.063C83.8475 135.003 85.5733 136.525 87.7786 136.525H90.4649C92.453 136.525 94.1023 135.246 94.3615 133.53L101.61 104.147L111.423 104.48C111.512 104.49 111.604 104.479 111.69 104.464C114.782 104.669 126.483 105.228 130.145 102.106C130.805 101.639 134.622 98.7517 134.871 94.4702C134.871 94.4363 134.871 94.2683 134.868 94.236C134.62 90.0467 130.805 87.1655 130.145 86.6987C126.339 83.4557 113.847 84.1841 111.423 84.3618L101.615 84.6945L94.36 55.2752C94.1007 53.5584 92.4515 52.2793 90.4633 52.2793H87.777C85.5733 52.2793 83.846 53.8007 83.8506 55.8566L85.8419 85.2759L66.4882 86.8651L64.3688 79.4763Z" fill="#001A34"/>
<path d="M86.9777 55.7846L86.5941 55.464L86.4653 55.618L86.4788 55.8184L86.9777 55.7846ZM91.2726 55.7636L91.7699 55.7114L91.7511 55.5324L91.6225 55.4065L91.2726 55.7636ZM91.3117 55.9849L91.7972 55.8652L91.7958 55.86L91.3117 55.9849ZM98.8989 86.7495L99.3844 86.6298L99.3844 86.6298L98.8989 86.7495ZM100.462 87.964L100.445 87.4643L100.433 87.4647L100.421 87.4657L100.462 87.964ZM111.584 87.5861L111.601 88.0858L111.61 88.0855L111.62 88.0848L111.584 87.5861ZM128.178 89.2108L127.844 89.5829L127.848 89.5867L128.178 89.2108ZM128.345 89.3416L128.061 89.7533L128.345 89.3416ZM131.75 94.3724L132.249 94.4016L132.251 94.3721L132.249 94.3426L131.75 94.3724ZM128.348 99.4614L128.617 99.8832L128.624 99.8783L128.632 99.873L128.348 99.4614ZM128.176 99.5938L127.851 99.214L127.843 99.2215L128.176 99.5938ZM111.581 101.219L111.53 101.716L111.537 101.717L111.545 101.717L111.581 101.219ZM111.212 101.241L111.195 101.741L111.254 101.743L111.311 101.731L111.212 101.241ZM100.456 100.876L100.435 101.376L100.439 101.376L100.456 100.876ZM98.8926 102.091L99.3781 102.21L99.3781 102.21L98.8926 102.091ZM91.3117 132.816L91.7959 132.941L91.7971 132.936L91.3117 132.816ZM91.2836 132.993L91.7265 133.225L91.7711 133.139L91.7809 133.044L91.2836 132.993ZM86.9777 133.018L86.4788 132.985L86.4653 133.185L86.5941 133.339L86.9777 133.018ZM89.0643 102.196L89.5631 102.229L89.5631 102.229L89.0643 102.196ZM87.6305 100.472L87.672 99.9741L87.6716 99.9741L87.6305 100.472ZM65.6389 98.6587L65.5905 99.1564L65.5978 99.157L65.6389 98.6587ZM64.024 99.7844L63.5456 99.6388L63.5456 99.639L64.024 99.7844ZM61.433 108.308L61.9042 108.476L61.908 108.465L61.9113 108.454L61.433 108.308ZM61.3892 80.4477L61.8699 80.3099L61.8679 80.3029L61.8657 80.296L61.3892 80.4477ZM63.8506 89.0348L64.3313 88.8973L64.3313 88.897L63.8506 89.0348ZM65.4718 90.1863L65.4308 89.6879L65.4261 89.6884L65.4718 90.1863ZM87.6305 88.3662L87.6715 88.8645L87.672 88.8644L87.6305 88.3662ZM89.0643 86.6429L88.5654 86.6767L88.5654 86.6773L89.0643 86.6429ZM64.3688 79.4763L64.8494 79.3385L64.847 79.3301L64.8443 79.3219L64.3688 79.4763ZM64.3953 109.333L64.8681 109.496L64.8711 109.487L64.8737 109.479L64.3953 109.333ZM66.6318 101.98L66.6729 101.482L66.2709 101.449L66.1535 101.835L66.6318 101.98ZM85.8419 103.563L86.3408 103.597L86.374 103.105L85.883 103.065L85.8419 103.563ZM83.8475 133.063L83.3487 133.029L83.3475 133.046V133.063H83.8475ZM94.3615 133.53L93.8761 133.41L93.8706 133.432L93.8671 133.455L94.3615 133.53ZM101.61 104.147L101.627 103.648L101.222 103.634L101.124 104.028L101.61 104.147ZM111.423 104.48L111.477 103.983L111.458 103.981L111.44 103.98L111.423 104.48ZM111.69 104.464L111.723 103.965L111.664 103.961L111.606 103.971L111.69 104.464ZM130.145 102.106L129.856 101.698L129.838 101.711L129.821 101.726L130.145 102.106ZM134.871 94.4702L135.371 94.4994L135.371 94.4848V94.4702H134.871ZM134.868 94.236L134.369 94.2656L134.37 94.2749L134.371 94.2842L134.868 94.236ZM130.145 86.6987L129.821 87.0793L129.838 87.0938L129.856 87.1068L130.145 86.6987ZM111.423 84.3618L111.44 84.8615L111.449 84.8612L111.459 84.8604L111.423 84.3618ZM101.615 84.6945L101.129 84.8142L101.226 85.2079L101.631 85.1942L101.615 84.6945ZM94.36 55.2752L93.8656 55.3498L93.869 55.3726L93.8745 55.3949L94.36 55.2752ZM83.8506 55.8566L83.3506 55.8577L83.3507 55.874L83.3518 55.8903L83.8506 55.8566ZM85.8419 85.2759L85.8829 85.7742L86.3741 85.7339L86.3408 85.2421L85.8419 85.2759ZM66.4882 86.8651L66.0075 87.0029L66.1205 87.3969L66.5291 87.3634L66.4882 86.8651ZM87.3613 56.1053C87.3371 56.1343 87.3525 56.1063 87.4358 56.0708C87.5089 56.0397 87.6224 56.0085 87.7773 56.0085V55.0085C87.2089 55.0085 86.7844 55.2362 86.5941 55.464L87.3613 56.1053ZM87.7773 56.0085H90.4636V55.0085H87.7773V56.0085ZM90.4636 56.0085C90.6353 56.0085 90.7616 56.0471 90.8419 56.0826C90.8826 56.1005 90.9116 56.1177 90.9284 56.1288C90.9504 56.1433 90.9456 56.1432 90.9227 56.1208L91.6225 55.4065C91.5144 55.3005 91.1123 55.0085 90.4636 55.0085V56.0085ZM90.7754 55.8159C90.7853 55.9106 90.8017 56.0096 90.8275 56.1097L91.7958 55.86C91.7842 55.8149 91.7756 55.7653 91.7699 55.7114L90.7754 55.8159ZM90.8262 56.1046L98.4134 86.8692L99.3844 86.6298L91.7971 55.8652L90.8262 56.1046ZM98.4134 86.8692C98.6446 87.8069 99.5164 88.5434 100.503 88.4623L100.421 87.4657C99.9931 87.5009 99.5155 87.1618 99.3844 86.6298L98.4134 86.8692ZM100.479 88.4637L111.601 88.0858L111.567 87.0864L100.445 87.4643L100.479 88.4637ZM111.62 88.0848C114.439 87.8796 118.059 87.8344 121.219 88.0644C122.8 88.1794 124.252 88.3624 125.425 88.6244C126.624 88.892 127.445 89.2244 127.844 89.5829L128.512 88.8387C127.905 88.2936 126.857 87.9194 125.643 87.6484C124.404 87.3717 122.898 87.1839 121.292 87.067C118.077 86.8331 114.408 86.8792 111.548 87.0874L111.62 88.0848ZM127.848 89.5867C127.913 89.6432 127.987 89.7023 128.061 89.7533L128.629 88.93C128.59 88.9035 128.546 88.8689 128.508 88.835L127.848 89.5867ZM128.061 89.7533C128.063 89.7543 128.838 90.2888 129.628 91.1547C130.428 92.0324 131.177 93.1777 131.251 94.4023L132.249 94.3426C132.155 92.7732 131.218 91.4144 130.366 90.4808C129.504 89.5355 128.66 88.9516 128.629 88.93L128.061 89.7533ZM131.251 94.3432C131.177 95.6006 130.425 96.7618 129.626 97.6449C129.233 98.0796 128.842 98.431 128.549 98.6748C128.402 98.7965 128.28 98.8906 128.196 98.9542C128.153 98.9859 128.12 99.01 128.098 99.0261C128.087 99.0341 128.078 99.0401 128.072 99.0441C128.07 99.046 128.068 99.0475 128.066 99.0484C128.066 99.0489 128.065 99.0492 128.065 99.0494C128.065 99.0495 128.065 99.0496 128.064 99.0497C128.064 99.0497 128.064 99.0497 128.064 99.0497L128.632 99.873C128.661 99.8527 129.505 99.2692 130.368 98.3159C131.221 97.3732 132.155 95.9996 132.249 94.4016L131.251 94.3432ZM128.08 99.0395C127.986 99.0992 127.906 99.1669 127.851 99.2141L128.502 99.9735C128.556 99.927 128.588 99.9011 128.617 99.8832L128.08 99.0395ZM127.843 99.2215C127.444 99.5788 126.624 99.9103 125.426 100.177C124.252 100.438 122.8 100.621 121.219 100.736C118.059 100.966 114.437 100.922 111.616 100.72L111.545 101.717C114.406 101.922 118.077 101.967 121.292 101.733C122.898 101.617 124.404 101.429 125.643 101.153C126.856 100.883 127.904 100.51 128.51 99.9661L127.843 99.2215ZM111.631 100.721C111.442 100.702 111.268 100.72 111.113 100.751L111.311 101.731C111.396 101.714 111.466 101.709 111.53 101.716L111.631 100.721ZM111.229 100.741L100.473 100.376L100.439 101.376L111.195 101.741L111.229 100.741ZM100.477 100.377C99.5248 100.337 98.6429 101.015 98.4072 101.971L99.3781 102.21C99.5048 101.697 99.9785 101.357 100.435 101.376L100.477 100.377ZM98.4072 101.971L90.8262 132.697L91.7971 132.936L99.3781 102.21L98.4072 101.971ZM90.8275 132.692C90.7983 132.805 90.7938 132.867 90.7862 132.941L91.7809 133.044C91.7833 133.021 91.7844 133.01 91.7858 132.996C91.787 132.985 91.7878 132.979 91.7883 132.975C91.7889 132.972 91.7899 132.965 91.7958 132.941L90.8275 132.692ZM90.8407 132.761C90.8637 132.717 90.8864 132.692 90.8901 132.688C90.8971 132.681 90.8996 132.679 90.8956 132.682C90.8878 132.689 90.8663 132.704 90.8295 132.722C90.7577 132.756 90.6364 132.795 90.4636 132.795V133.795C90.789 133.795 91.0574 133.721 91.2609 133.624C91.3618 133.575 91.4493 133.52 91.5211 133.463C91.5798 133.416 91.6686 133.335 91.7265 133.225L90.8407 132.761ZM90.4636 132.795H87.7773V133.795H90.4636V132.795ZM87.7773 132.795C87.6214 132.795 87.5081 132.763 87.4355 132.732C87.353 132.697 87.3376 132.669 87.3613 132.698L86.5941 133.339C86.7842 133.567 87.2069 133.795 87.7773 133.795V132.795ZM87.4766 133.052L89.5631 102.229L88.5654 102.162L86.4788 132.985L87.4766 133.052ZM89.5631 102.229C89.6397 101.087 88.8135 100.069 87.672 99.9741L87.5891 100.971C88.1562 101.018 88.6075 101.534 88.5654 102.162L89.5631 102.229ZM87.6716 99.9741L65.68 98.1604L65.5978 99.157L87.5894 100.971L87.6716 99.9741ZM65.6873 98.1611C64.6993 98.065 63.8276 98.7121 63.5456 99.6388L64.5023 99.9299C64.6577 99.4193 65.1166 99.1103 65.5905 99.1564L65.6873 98.1611ZM63.5456 99.639L60.9546 108.163L61.9113 108.454L64.5024 99.9298L63.5456 99.639ZM60.9617 108.141C60.9645 108.133 60.97 108.126 60.9787 108.119C60.9878 108.113 61.0033 108.106 61.0238 108.106V109.106C61.4307 109.106 61.7752 108.839 61.9042 108.476L60.9617 108.141ZM61.0238 108.106H58.4843V109.106H61.0238V108.106ZM58.4843 108.106C58.508 108.106 58.5265 108.116 58.5361 108.126C58.5456 108.136 58.5501 108.148 58.5501 108.158H57.5501C57.5501 108.668 57.9558 109.106 58.4843 109.106V108.106ZM58.5501 108.158V80.6447H57.5501V108.158H58.5501ZM58.5501 80.6447C58.5501 80.6549 58.5456 80.6671 58.5361 80.6768C58.5265 80.6868 58.508 80.6974 58.4843 80.6974V79.6974C57.9558 79.6974 57.5501 80.135 57.5501 80.6447H58.5501ZM58.4843 80.6974H60.9957V79.6974H58.4843V80.6974ZM60.9957 80.6974C60.9815 80.6974 60.9744 80.6935 60.97 80.6906C60.967 80.6886 60.9598 80.6833 60.9504 80.6719C60.9415 80.661 60.925 80.6376 60.9128 80.5993L61.8657 80.296C61.8025 80.0977 61.6633 79.951 61.525 79.8588C61.3808 79.7626 61.1972 79.6974 60.9957 79.6974V80.6974ZM60.9086 80.5855L63.37 89.1725L64.3313 88.897L61.8699 80.3099L60.9086 80.5855ZM63.3699 89.1723C63.6404 90.1178 64.5206 90.7755 65.5174 90.6842L65.4261 89.6884C64.9424 89.7327 64.4794 89.415 64.3313 88.8973L63.3699 89.1723ZM65.5127 90.6846L87.6715 88.8645L87.5896 87.8678L65.4308 89.688L65.5127 90.6846ZM87.672 88.8644C88.8129 88.7695 89.6418 87.7502 89.5631 86.6085L88.5654 86.6773C88.6085 87.3025 88.1567 87.8207 87.5891 87.8679L87.672 88.8644ZM89.5631 86.6092L87.4766 55.7509L86.4788 55.8184L88.5654 86.6767L89.5631 86.6092ZM64.8443 79.3219C64.293 77.6242 62.7516 76.4682 60.9969 76.4682V77.4682C62.3002 77.4682 63.47 78.3277 63.8932 79.6308L64.8443 79.3219ZM60.9969 76.4682H58.4855V77.4682H60.9969V76.4682ZM58.4855 76.4682C56.2324 76.4682 54.4277 78.3566 54.4277 80.6456H55.4277C55.4277 78.8776 56.8154 77.4682 58.4855 77.4682V76.4682ZM54.4277 80.6456V108.158H55.4277V80.6456H54.4277ZM54.4277 108.158C54.4277 110.447 56.2324 112.335 58.4855 112.335V111.335C56.8154 111.335 55.4277 109.926 55.4277 108.158H54.4277ZM58.4855 112.335H61.025V111.335H58.4855V112.335ZM61.025 112.335C62.7527 112.335 64.2799 111.205 64.8681 109.496L63.9226 109.171C63.4644 110.501 62.2991 111.335 61.025 111.335V112.335ZM64.8737 109.479L67.1102 102.126L66.1535 101.835L63.917 109.188L64.8737 109.479ZM66.5908 102.478L85.8009 104.061L85.883 103.065L66.6729 101.482L66.5908 102.478ZM85.3431 103.529L83.3487 133.029L84.3464 133.097L86.3408 103.597L85.3431 103.529ZM83.3475 133.063C83.3475 135.336 85.3584 137.025 87.7786 137.025V136.025C85.7882 136.025 84.3475 134.669 84.3475 133.063H83.3475ZM87.7786 137.025H90.4649V136.025H87.7786V137.025ZM90.4649 137.025C92.6516 137.025 94.5529 135.611 94.8559 133.604L93.8671 133.455C93.6517 134.882 92.2544 136.025 90.4649 136.025V137.025ZM94.847 133.649L102.095 104.267L101.124 104.028L93.8761 133.41L94.847 133.649ZM101.593 104.647L111.406 104.98L111.44 103.98L101.627 103.648L101.593 104.647ZM111.368 104.977C111.529 104.995 111.678 104.973 111.773 104.957L111.606 103.971C111.53 103.984 111.494 103.985 111.477 103.983L111.368 104.977ZM111.657 104.963C113.211 105.066 116.933 105.258 120.734 105.032C122.633 104.918 124.566 104.7 126.264 104.308C127.949 103.918 129.462 103.346 130.47 102.487L129.821 101.726C128.998 102.427 127.675 102.955 126.039 103.333C124.416 103.708 122.544 103.922 120.674 104.034C116.935 104.257 113.261 104.067 111.723 103.965L111.657 104.963ZM130.434 102.514C130.785 102.266 131.943 101.397 133.05 100.034C134.155 98.6724 135.237 96.7825 135.371 94.4994L134.372 94.4411C134.256 96.4394 133.304 98.1341 132.274 99.4035C131.245 100.671 130.165 101.48 129.856 101.698L130.434 102.514ZM135.371 94.4702C135.371 94.4585 135.372 94.2518 135.366 94.1879L134.371 94.2842C134.37 94.2729 134.369 94.2668 134.37 94.2733C134.37 94.277 134.37 94.2832 134.37 94.292C134.371 94.3096 134.371 94.3322 134.371 94.3564C134.371 94.4046 134.371 94.4533 134.371 94.4702H135.371ZM135.367 94.2065C135.235 91.9671 134.151 90.1013 133.048 88.7545C131.942 87.405 130.784 86.5385 130.434 86.2907L129.856 87.1068C130.166 87.3257 131.246 88.1332 132.274 89.3883C133.305 90.6461 134.254 92.3156 134.369 94.2656L135.367 94.2065ZM130.47 86.3181C129.423 85.4263 127.83 84.8423 126.063 84.4522C124.281 84.059 122.257 83.8495 120.291 83.7482C116.359 83.5456 112.606 83.7737 111.386 83.8631L111.459 84.8604C112.663 84.7722 116.368 84.5473 120.24 84.7469C122.176 84.8466 124.14 85.052 125.847 85.4287C127.569 85.8086 128.965 86.3496 129.821 87.0793L130.47 86.3181ZM111.406 83.8621L101.598 84.1948L101.631 85.1942L111.44 84.8615L111.406 83.8621ZM102.1 84.5748L94.8454 55.1555L93.8745 55.3949L101.129 84.8142L102.1 84.5748ZM94.8544 55.2005C94.5513 53.1939 92.65 51.7793 90.4633 51.7793V52.7793C92.2529 52.7793 93.6501 53.9229 93.8656 55.3498L94.8544 55.2005ZM90.4633 51.7793H87.777V52.7793H90.4633V51.7793ZM87.777 51.7793C85.3478 51.7793 83.3452 53.4768 83.3506 55.8577L84.3506 55.8554C84.3467 54.1245 85.7989 52.7793 87.777 52.7793V51.7793ZM83.3518 55.8903L85.3431 85.3096L86.3408 85.2421L84.3495 55.8228L83.3518 55.8903ZM85.801 84.7776L66.4472 86.3667L66.5291 87.3634L85.8829 85.7742L85.801 84.7776ZM66.9688 86.7272L64.8494 79.3385L63.8882 79.6142L66.0075 87.0029L66.9688 86.7272Z" fill="#001A34"/>
<path fill-rule="evenodd" clip-rule="evenodd" d="M86.9759 55.785C87.0556 55.6897 87.3289 55.5088 87.7756 55.5088H90.4619C90.9601 55.5088 91.2412 55.7349 91.2709 55.764C91.2787 55.8383 91.2912 55.9125 91.3099 55.9852L98.8971 86.7498C99.0783 87.4847 99.753 88.0225 100.46 87.9643L111.582 87.5864C117.261 87.173 126.163 87.4039 128.176 89.2111C128.228 89.2564 128.287 89.3032 128.343 89.342C128.376 89.3646 131.581 91.5788 131.748 94.3728C131.581 97.2281 128.374 99.4423 128.346 99.4617C128.285 99.5005 128.229 99.5473 128.175 99.5941C126.165 101.397 117.261 101.626 111.579 101.219C111.452 101.206 111.331 101.217 111.21 101.241L100.454 100.876C99.7499 100.847 99.0721 101.356 98.8909 102.091L91.3099 132.817C91.2912 132.889 91.2896 132.917 91.2818 132.993C91.2412 133.07 90.9601 133.295 90.4619 133.295H87.7756C87.3273 133.295 87.0556 133.114 86.9759 133.019L89.0625 102.196C89.1218 101.311 88.4831 100.544 87.6288 100.473L65.6371 98.659C64.9062 98.588 64.2409 99.066 64.0222 99.7847L61.4312 108.309C61.3687 108.485 61.2047 108.606 61.022 108.606H58.4825C58.2436 108.606 58.0483 108.406 58.0483 108.159V80.645C58.0483 80.3979 58.2436 80.1977 58.4825 80.1977H60.9939C61.1813 80.1977 61.3469 80.3204 61.3875 80.448L63.8489 89.0351C64.0581 89.7667 64.7297 90.2544 65.47 90.1866L87.6288 88.3665C88.4831 88.2954 89.1234 87.5267 89.0625 86.6432L86.9759 55.785Z" fill="#BD9258"/>
<path fill-rule="evenodd" clip-rule="evenodd" d="M155.581 72.5419C154.799 72.1572 153.856 72.4956 153.481 73.2907L152.494 75.3775C145.081 47.9833 120.718 29 92.6206 29C63.9247 29 39.1149 48.7912 32.2861 77.1305C32.0783 77.9863 32.5963 78.85 33.4418 79.0608C34.2858 79.2683 35.1392 78.7463 35.3439 77.8889C41.8278 50.9849 65.3812 32.1948 92.6206 32.1948C119.337 32.1948 142.499 50.2792 149.496 76.3594L147.551 75.4078C146.769 75.0246 145.827 75.3567 145.449 76.1518C145.073 76.9453 145.399 77.9001 146.181 78.2832L151.607 80.94C151.821 81.0453 152.058 81.0996 152.292 81.0996C152.465 81.0996 152.643 81.0693 152.812 81.0086C153.209 80.8681 153.531 80.5759 153.712 80.1928L156.323 74.6718C156.698 73.8767 156.365 72.9219 155.581 72.5419" fill="#001A34"/>
<path d="M155.581 72.5419C154.799 72.1572 153.856 72.4956 153.481 73.2907L152.494 75.3775C145.081 47.9833 120.718 29 92.6206 29C63.9247 29 39.1149 48.7912 32.2861 77.1305C32.0783 77.9863 32.5963 78.85 33.4418 79.0608C34.2858 79.2683 35.1392 78.7463 35.3439 77.8889C41.8278 50.9849 65.3812 32.1948 92.6206 32.1948C119.337 32.1948 142.499 50.2792 149.496 76.3594L147.551 75.4078C146.769 75.0246 145.827 75.3567 145.449 76.1518C145.073 76.9453 145.399 77.9001 146.181 78.2832L151.607 80.94C151.821 81.0453 152.058 81.0996 152.292 81.0996C152.465 81.0996 152.643 81.0693 152.812 81.0086C153.209 80.8681 153.531 80.5759 153.712 80.1928L156.323 74.6718C156.698 73.8767 156.365 72.9219 155.581 72.5419" stroke="#001A34"/>
<path fill-rule="evenodd" clip-rule="evenodd" d="M150.969 105.618C150.128 105.393 149.286 105.937 149.082 106.807C142.632 134.138 119.286 153.227 92.3084 153.227C65.791 153.227 42.7969 134.78 35.894 108.196L37.9342 109.445C38.6789 109.9 39.6327 109.641 40.0713 108.868C40.5084 108.095 40.2602 107.1 39.5187 106.645L34.3704 103.494C34.0129 103.275 33.5852 103.215 33.184 103.323C32.7828 103.432 32.4394 103.703 32.2302 104.077L29.2127 109.455C28.7787 110.229 29.0301 111.223 29.7731 111.675C30.0213 111.826 30.2914 111.897 30.5583 111.897C31.0953 111.897 31.6183 111.608 31.9086 111.092L32.9358 109.261C40.2742 137.148 64.4454 156.479 92.3068 156.479C120.727 156.479 145.318 136.373 152.11 107.585C152.318 106.711 151.806 105.831 150.969 105.618" fill="#001A34"/>
<path d="M150.969 105.618C150.128 105.393 149.286 105.937 149.082 106.807C142.632 134.138 119.286 153.227 92.3084 153.227C65.791 153.227 42.7969 134.78 35.894 108.196L37.9342 109.445C38.6789 109.9 39.6327 109.641 40.0713 108.868C40.5084 108.095 40.2602 107.1 39.5187 106.645L34.3704 103.494C34.0129 103.275 33.5852 103.215 33.184 103.323C32.7828 103.432 32.4394 103.703 32.2302 104.077L29.2127 109.455C28.7787 110.229 29.0301 111.223 29.7731 111.675C30.0213 111.826 30.2914 111.897 30.5583 111.897C31.0953 111.897 31.6183 111.608 31.9086 111.092L32.9358 109.261C40.2742 137.148 64.4454 156.479 92.3068 156.479C120.727 156.479 145.318 136.373 152.11 107.585C152.318 106.711 151.806 105.831 150.969 105.618" stroke="#001A34"/>
</svg>
