<svg width="187" height="187" viewBox="0 0 187 187" fill="none" xmlns="http://www.w3.org/2000/svg">
<path d="M67.2593 79.3457H42C40.3431 79.3457 39 80.6889 39 82.3457V147.001H67.2593V79.3457Z" stroke="#001A34" stroke-width="4"/>
<path d="M116.742 38H70.26C68.6032 38 67.26 39.3431 67.26 41V147H119.742V41C119.742 39.3431 118.398 38 116.742 38Z" fill="#BD9258" stroke="#001A34" stroke-width="4"/>
<path d="M107.63 109.414H79.3704V147H107.63V109.414Z" stroke="#001A34" stroke-width="4"/>
<path d="M145 79.3457H119.741V147.001H148V82.3457C148 80.6888 146.657 79.3457 145 79.3457Z" stroke="#001A34" stroke-width="4"/>
<path d="M97.4029 49.4746H89.5979V56.7413H81.793V64.0079H89.5979V71.2747H97.4029V64.0079H105.208V56.7413H97.4029V49.4746Z" stroke="#001A34" stroke-width="4"/>
</svg>
