<svg width="187" height="187" viewBox="0 0 187 187" fill="none" xmlns="http://www.w3.org/2000/svg">
<path d="M121.599 43.6493C104.263 52.8154 100.388 62.5255 101.663 66.5568C97.8381 74.8318 110.764 85.6604 111.402 86.2969C131.161 93.9353 138.809 78.6586 139.447 78.6586C141.996 75.4759 151.838 39.1783 148.829 37.2764C142.455 37.9129 122.237 43.6493 121.599 43.6493Z" fill="#BD9258"/>
<path d="M72.2185 35.9911C80.8874 40.5529 82.8248 45.3855 82.1874 47.3918C84.0998 51.5101 77.6364 56.8994 77.3177 57.2162C67.4376 61.0177 63.6131 53.4147 63.2944 53.4147C62.0195 51.8307 57.0986 33.7659 58.603 32.8193C61.7901 33.1361 71.8997 35.9911 72.2185 35.9911Z" fill="#BD9258"/>
<path fill-rule="evenodd" clip-rule="evenodd" d="M141.82 62.8566C140.502 70.8659 139.254 78.4352 135.919 81.7662C128.716 88.9588 116.15 88.9588 108.948 81.7662C105.346 78.1699 103.36 73.3854 103.36 68.2987C103.36 63.2066 105.341 58.4276 108.948 54.8313C117.552 46.2383 132.02 40.7695 148.374 39.7725C144.539 46.3338 143.116 55.0063 141.82 62.8566ZM156.272 35.9427C155.863 34.9509 154.891 34.3037 153.818 34.3037C133.89 34.3037 115.709 40.5786 105.192 51.0811C100.587 55.6799 98.0483 61.7904 98.0483 68.2987C98.0483 74.8019 100.587 80.9176 105.192 85.5164C109.797 90.1152 115.921 92.6506 122.433 92.6506C128.945 92.6506 135.069 90.1152 139.679 85.5217C144.225 80.9813 145.606 72.5952 147.067 63.7211C148.64 54.1522 150.27 44.2545 155.698 38.8334C156.458 38.0751 156.686 36.9345 156.272 35.9427Z" fill="#001A34"/>
<path fill-rule="evenodd" clip-rule="evenodd" d="M79.7125 53.1186C76.5097 56.3171 71.3044 56.3171 68.1017 53.1186C66.7313 51.7554 66.1151 48.0106 65.5203 44.3877C64.9893 41.1522 64.4102 37.6407 63.1569 34.5854C70.0511 35.3863 76.0317 37.8582 79.7125 41.5234C82.9152 44.7219 82.9152 49.9202 79.7125 53.1186ZM83.4622 37.7787C77.88 32.1985 68.6753 29 58.2118 29C57.139 29 56.167 29.6417 55.7579 30.6338C55.3436 31.6256 55.5719 32.7661 56.3316 33.5247C58.7483 35.9328 59.5236 40.6696 60.278 45.2473C61.0481 49.9045 61.7706 54.2964 64.3464 56.8688C66.9808 59.4997 70.444 60.8152 73.9069 60.8152C77.3647 60.8152 80.8276 59.4997 83.4622 56.8741C88.7364 51.6069 88.7364 43.0406 83.4622 37.7787Z" fill="#001A34"/>
<path fill-rule="evenodd" clip-rule="evenodd" d="M129.144 56.303C128.108 55.2687 126.424 55.2687 125.388 56.303C111.313 70.3541 104.148 86.1714 100.765 95.9737C96.9725 82.5803 89.7276 59.369 83.471 53.1205C82.4353 52.0861 80.7515 52.0861 79.7158 53.1205C78.68 54.1548 78.68 55.8363 79.7158 56.8707C85.9831 63.1351 95.14 94.8705 98.1357 106.572C98.4332 107.749 99.4953 108.566 100.706 108.566H100.791C102.039 108.529 103.091 107.632 103.319 106.413C103.367 106.158 108.387 80.7822 129.144 60.0532C130.179 59.0189 130.179 57.3374 129.144 56.303Z" fill="#001A34"/>
<path fill-rule="evenodd" clip-rule="evenodd" d="M45.6512 140.39H34.3113V98.147C42.8468 98.8206 52.062 100.284 55.4029 101.908C53.9955 113.524 47.6271 134.163 45.6512 140.39ZM60.0398 98.6823C55.4878 94.3754 37.2858 92.9803 31.8151 92.6566C31.0503 92.6461 30.3651 92.8741 29.8341 93.3727C29.3027 93.8714 29 94.5719 29 95.3036V143.042C29 144.506 30.1898 145.694 31.6558 145.694H47.59C48.7372 145.694 49.757 144.952 50.1128 143.865C50.5004 142.676 59.6521 114.627 60.8576 100.836C60.9269 100.03 60.6293 99.2343 60.0398 98.6823Z" fill="#001A34"/>
<path fill-rule="evenodd" clip-rule="evenodd" d="M156.198 131.586C152.507 124.218 144.343 120.468 136.344 122.468L115.996 127.55C114.573 127.905 113.707 129.343 114.063 130.764C114.419 132.185 115.859 133.055 117.282 132.694L137.63 127.624C142.272 126.467 146.999 128.09 149.926 131.634L123.597 143.589C101.268 152.728 100.498 152.437 90.9213 148.83L51.0859 135.569C49.6889 135.108 48.1914 135.856 47.7293 137.245C47.2672 138.635 48.0158 140.136 49.4073 140.598L89.1419 153.821C93.6087 155.503 96.6895 156.479 100.153 156.479C105.538 156.479 111.848 154.129 125.711 148.448L154.924 135.187C155.577 134.89 156.087 134.339 156.326 133.66C156.565 132.976 156.522 132.233 156.198 131.586Z" fill="#001A34"/>
<path fill-rule="evenodd" clip-rule="evenodd" d="M106.605 113.93L58.788 103.321C57.3694 103.03 55.9349 103.91 55.6161 105.337C55.3026 106.769 56.2006 108.185 57.6351 108.504L105.383 119.096C111.27 120.565 113.634 122.878 113.958 127.721L108.858 128.994C106.966 129.466 104.958 129.519 103.035 129.132L79.9871 124.528C78.5259 124.226 77.1499 125.17 76.863 126.607C76.5761 128.045 77.5058 129.44 78.9458 129.726L101.999 134.331C103.194 134.569 104.422 134.686 105.644 134.686C107.163 134.686 108.683 134.5 110.149 134.134L117.3 132.352C118.485 132.055 119.314 130.994 119.314 129.779V128.941C119.314 120.751 115.419 116.126 106.605 113.93Z" fill="#001A34"/>
</svg>
