<svg width="187" height="187" viewBox="0 0 187 187" fill="none" xmlns="http://www.w3.org/2000/svg">
<path fill-rule="evenodd" clip-rule="evenodd" d="M92.5347 86.7339C83.484 81.5085 72.0237 80.9605 60.2653 85.1909C49.6958 88.9932 40.5409 96.1902 35.7761 104.443C33.4615 108.452 32.9496 112.228 34.2543 115.666C35.5422 119.06 38.3691 121.589 41.9563 123.66C45.7733 125.864 50.4511 127.549 55.0476 129.205C59.0639 130.652 62.8575 132.019 65.5066 133.548C67.7931 134.868 70.6785 137.316 73.7327 139.907C80.8703 145.962 88.9611 152.824 96.6384 151.586C100.288 150.997 103.295 148.695 105.577 144.743C110.342 136.49 111.998 124.963 110.006 113.909C107.79 101.61 101.585 91.9592 92.5347 86.7339Z" fill="#BD9258" stroke="#001A34" stroke-width="4"/>
<path fill-rule="evenodd" clip-rule="evenodd" d="M134.426 56.0428C130.574 53.8188 125.666 53.8109 120.958 56.0205C116.634 58.0505 112.758 61.7571 110.044 66.4576C107.331 71.1581 106.058 76.368 106.463 81.1279C106.903 86.3092 109.364 90.5563 113.216 92.7802C117.068 95.0042 121.977 95.0121 126.684 92.8025C131.008 90.7724 134.884 87.0659 137.598 82.3654C140.311 77.6649 141.584 72.4547 141.179 67.695C140.74 62.5136 138.278 58.2666 134.426 56.0428Z" stroke="#001A34" stroke-width="4"/>
<path fill-rule="evenodd" clip-rule="evenodd" d="M102.61 36.9539C98.7582 34.7299 93.8494 34.7219 89.1426 36.9316C84.8185 38.9616 80.9424 42.6681 78.2286 47.3686C75.5148 52.0691 74.2427 57.279 74.6468 62.0389C75.0867 67.2203 77.5478 71.4673 81.3999 73.6913C85.252 75.9154 90.1606 75.9233 94.8678 73.7135C99.1918 71.6834 103.068 67.9771 105.782 63.2764C108.495 58.5758 109.768 53.3657 109.363 48.6061C108.924 43.4247 106.462 39.1779 102.61 36.9539Z" stroke="#001A34" stroke-width="4"/>
<path fill-rule="evenodd" clip-rule="evenodd" d="M146.984 101.166C145.029 98.8651 142.163 97.4091 138.914 97.0668C134.436 96.5944 129.635 98.1855 125.742 101.432C122.56 104.085 120.351 107.555 119.521 111.204C118.604 115.237 119.437 119.033 121.866 121.892C122.707 122.882 123.716 123.715 124.852 124.371C126.357 125.24 128.085 125.797 129.937 125.992C134.414 126.464 139.215 124.873 143.109 121.627C146.29 118.974 148.499 115.504 149.329 111.855C150.247 107.822 149.414 104.026 146.984 101.166Z" stroke="#001A34" stroke-width="4"/>
<path fill-rule="evenodd" clip-rule="evenodd" d="M64.1062 53.7485C62.1848 51.1058 59.4907 49.3518 56.5207 48.8091C52.8292 48.1351 49.1253 49.3119 46.0915 52.1227C43.3466 54.6658 41.4459 58.3143 40.7393 62.3958C39.8747 67.3912 40.8973 72.3444 43.5448 75.9858C44.6401 77.4922 45.9862 78.71 47.4914 79.579C48.627 80.2346 49.8532 80.6918 51.1303 80.9252C54.8221 81.5995 58.5259 80.4225 61.5596 77.6119C64.304 75.0686 66.2047 71.4201 66.9118 67.3383C67.7764 62.3433 66.7537 57.3899 64.1062 53.7485Z" stroke="#001A34" stroke-width="4"/>
</svg>
