<svg xmlns="http://www.w3.org/2000/svg" width="19" height="14" viewBox="0 0 19 14">
    <g fill="#B7A48B" fill-rule="evenodd">
        <path d="M18.792 12.95c.13-.254.208-.535.208-.837V1.886c0-.302-.08-.583-.208-.837l-5.317 4.936 5.317 6.964zM8.577 6.68c.52.466 1.324.466 1.856-.009L17.549.064a1.908 1.908 0 0 0-.47-.064H1.921c-.176 0-.342.03-.504.074l7.16 6.606z"/>
        <path d="M12.317 7.06l-.808.752a3.015 3.015 0 0 1-2.013.772 2.982 2.982 0 0 1-1.994-.762l-.82-.756-5.166 6.89c.13.027.265.044.404.044h15.16c.168 0 .328-.028.483-.069l-5.246-6.87zM.193 1.078A1.84 1.84 0 0 0 0 1.886v10.227c0 .332.095.64.249.91L5.52 5.995.193 1.078z"/>
    </g>
</svg>
