<svg xmlns="http://www.w3.org/2000/svg" width="15" height="18" viewBox="0 0 15 18">
    <g fill="#B7A48B" fill-rule="evenodd">
        <path d="M2.813 7.448c0-2.57 2.098-4.655 4.687-4.655 2.589 0 4.688 2.084 4.688 4.655s-2.099 4.655-4.688 4.655c-2.589 0-4.688-2.084-4.688-4.655zM0 7.448c0 5.953 5.786 10.545 7.5 10.545 1.714 0 7.5-4.44 7.5-10.545C15 3.335 11.642 0 7.5 0 3.358 0 0 3.335 0 7.448z"/>
        <path d="M7.5 4.655a2.803 2.803 0 0 1 2.813 2.793A2.803 2.803 0 0 1 7.5 10.241a2.803 2.803 0 0 1-2.813-2.793A2.803 2.803 0 0 1 7.5 4.655"/>
    </g>
</svg>
