<svg xmlns="http://www.w3.org/2000/svg" width="16" height="16" viewBox="0 0 16 16">
    <path fill="#B7A48B" fill-rule="evenodd" d="M11.56 15.99c-1.322 0-2.952-.635-4.863-2.546L2.545 9.292c-3.99-3.99-2.414-6.759-1.12-8.053l.718-.717A1.768 1.768 0 0 1 4.23.208c1.148.608 2.307 2.546 2.436 2.766.26.458.338.934.223 1.35-.091.326-.291.593-.582.775-.302.253-.66.569-.734.657-.333.494-.3.818.148 1.268l3.244 3.243c.448.449.774.483 1.29.132.068-.06.382-.415.635-.717.182-.29.449-.492.774-.582.415-.116.893-.038 1.343.22.227.131 2.166 1.291 2.773 2.438a1.77 1.77 0 0 1-.315 2.088l-.716.716c-.674.675-1.75 1.427-3.188 1.427"/>
</svg>
